<svg id="Logo_Wit" xmlns="http://www.w3.org/2000/svg" width="69.175" height="40" viewBox="0 0 69.175 40">
  <path id="Path_1" data-name="Path 1" d="M257.2,375.879q4.454-13.4,5.938-13.4a2.048,2.048,0,0,1,.393.044,2.547,2.547,0,0,0,1.572-.568,8.231,8.231,0,0,1,2.641-1.484,6.965,6.965,0,0,1,2.947-.393,4.443,4.443,0,0,1,4.234,3.536v.13a6.841,6.841,0,0,1-.436,1h.175a17.057,17.057,0,0,0-2.1,3.515q-1.005,2.161-1.528,3.362t-1.484,3.034q-.961,1.834-2.2,4.5t-2.6,5.282a47.912,47.912,0,0,1-6.418,9.867,5.242,5.242,0,0,1-4.366,1.921,5.306,5.306,0,0,1-2.27-.611,3.953,3.953,0,0,1-1.7-1.746l-.917-2.75q-.568.48-1.31,1.222t-1.572,1.529q-1.922,1.833-2.969,1.92a10.605,10.605,0,0,1-1.79.022,4.872,4.872,0,0,1-1.4-.327,3.041,3.041,0,0,1-1.921-2.183,87.441,87.441,0,0,1,.742-19.079q.392-2.837.7-5.588a9.251,9.251,0,0,1,2.794-5.589,3.309,3.309,0,0,1,3.405-.873,2.156,2.156,0,0,1,1.135.873,2.09,2.09,0,0,1,.262,1.485,32.964,32.964,0,0,1-.044,3.972,30.222,30.222,0,0,0-.131,3.275,12.951,12.951,0,0,1-.022,1.725q-.065.677-.087,1.266a4.663,4.663,0,0,0,.044.96c.043.248.153.3.327.153a20.271,20.271,0,0,1,1.7-3.1q.7-.96,1.484-2.008a2.371,2.371,0,0,1,2.139-.83,4.261,4.261,0,0,1,1,.327,6.478,6.478,0,0,0,1.4.415,2.269,2.269,0,0,1,.742,1.048c.087.087.175.167.262.24a.685.685,0,0,1,.2.261c.044.1.116.327.219.677s.211.72.327,1.114.218.771.306,1.135S257.166,375.763,257.2,375.879Zm1.048,18.293c0,.058.007.066.022.022a.493.493,0,0,0,.022-.153Z" transform="translate(-237.869 -358.299)" fill="#fff"/>
  <path id="Path_2" data-name="Path 2" d="M303.839,378.345a3.53,3.53,0,0,1,2.706-1.965,6.094,6.094,0,0,1,3.755.13,2.1,2.1,0,0,1,1.615,2.271q-.48,1.528-1.2,3.733t-1.375,4.519a56.243,56.243,0,0,0-2.008,8.382q-.655,3.928-2.183,4.235-.437.087-.83.13-.96.043-1.222.524a1.622,1.622,0,0,1-.874.72,3.339,3.339,0,0,1-1.332.219,3.924,3.924,0,0,1-1.462-.349,3.514,3.514,0,0,1-1.267-.939,4.1,4.1,0,0,1-.48-3.973,58.9,58.9,0,0,1,3.536-12.093A28.553,28.553,0,0,1,303.839,378.345Zm8.251-6.549a5.177,5.177,0,0,1-3.471-.261,2.677,2.677,0,0,1-1.55-1.681,2.391,2.391,0,0,1,.611-2.03,4.528,4.528,0,0,1,2.882-1.7q.873-.088,1.266-.088a3.382,3.382,0,0,1,.961.175,2.006,2.006,0,0,1,1.877,1.266,2.259,2.259,0,0,1,.109,2.182A4.623,4.623,0,0,1,312.09,371.8Z" transform="translate(-267.18 -361.246)" fill="#fff"/>
  <path id="Path_3" data-name="Path 3" d="M342.04,359.95l.044-.174.393-.393a2.317,2.317,0,0,1,1.048-1.353q.3-.088.786-.218a4.785,4.785,0,0,0,1.266-.655,1.175,1.175,0,0,1,1.266-.546,4.475,4.475,0,0,1,3.427,2.118,2.362,2.362,0,0,1,.284,1.986q-.307,1.026-.5,1.529t-.392.939q-.2.436-.48.982t-.72,1.463l-1.441,3.012a1.468,1.468,0,0,1-.372.655.831.831,0,0,0-.283.306q.392-.087.655-.131l.523-.087q.611-.088,1.4-.175a4.677,4.677,0,0,0,.83.088h.611a3.67,3.67,0,0,1,1.266.283,1.508,1.508,0,0,1,.961.982,2.622,2.622,0,0,1,.044,1.419,3.19,3.19,0,0,1-.7,1.331,1.834,1.834,0,0,1-1.353.655,29.817,29.817,0,0,1-5.414,1.136l-.261.306v.044q-.437,1.048-.939,2.641t-1.091,3.45q-.59,1.856-1.2,3.842t-1.267,3.82q-2.1,6.156-3.056,6.68a2.646,2.646,0,0,1-.72.24,1.254,1.254,0,0,0-.414.11,6.242,6.242,0,0,1-2.533-.611,3.938,3.938,0,0,1-1.353-1,1.2,1.2,0,0,1-.174-1.091,106.639,106.639,0,0,1,3.318-16.634,3.011,3.011,0,0,0-1.223.174,3.665,3.665,0,0,1-1.571.393h-.044a1.863,1.863,0,0,1-1.266-.655,2.6,2.6,0,0,1-.437-3.012,2.789,2.789,0,0,1,1.572-1.31q1.4-.394,2.052-.655a16.573,16.573,0,0,1,2.118-.742,6.753,6.753,0,0,0,.96-.284.832.832,0,0,0,.153-.109,1.464,1.464,0,0,1,.655-.088q.262-1.266.524-2.575t.655-2.664A18.487,18.487,0,0,1,342.04,359.95Z" transform="translate(-283.552 -356.604)" fill="#fff"/>
</svg>
